<svg xmlns="http://www.w3.org/2000/svg" version="1.1" xmlns:xlink="http://www.w3.org/1999/xlink" width="1000" height="1000"><g clip-path="url(#SvgjsClipPath1087)"><rect width="1000" height="1000" fill="#ffffff"></rect><g transform="matrix(1.953125,0,0,1.953125,0,0)"><svg xmlns="http://www.w3.org/2000/svg" version="1.1" xmlns:xlink="http://www.w3.org/1999/xlink" width="512" height="512"><svg width="512" height="512" viewBox="0 0 512 512" fill="none" xmlns="http://www.w3.org/2000/svg">
<rect width="512" height="512" rx="60" fill="black"></rect>
<path d="M125.6 170.82H176.35V357H125.6V170.82ZM228.84 245.06V281.31H147.35V245.06H228.84ZM237.25 170.82V207.07H143.58V170.82H237.25ZM239.86 320.75V357H143.58V320.75H239.86ZM281.973 170.82H332.723V357H281.973V170.82ZM385.503 252.31V285.66H304.013V252.31H385.503ZM393.623 170.82V207.07H299.953V170.82H393.623Z" fill="white"></path>
<rect x="236" y="321" width="50" height="36" fill="white"></rect>
</svg></svg></g></g><defs><clipPath id="SvgjsClipPath1087"><rect width="1000" height="1000" x="0" y="0" rx="500" ry="500"></rect></clipPath></defs></svg>